<svg width="13" height="14" fill="none" xmlns="http://www.w3.org/2000/svg"><path d="M6.5 4.405a.464.464 0 00-.464.464v5.262a.464.464 0 10.928 0V4.869a.464.464 0 00-.464-.464z" fill="#23C967"/><path d="M9.131 7.036H3.87a.464.464 0 100 .928h5.26a.464.464 0 100-.928z" fill="#23C967"/><path d="M6.5 1A6.507 6.507 0 000 7.5C0 11.084 2.916 14 6.5 14S13 11.084 13 7.5 10.084 1 6.5 1zm0 12.071A5.578 5.578 0 01.929 7.5 5.577 5.577 0 016.5 1.929 5.577 5.577 0 0112.071 7.5 5.577 5.577 0 016.5 13.071z" fill="#23C967"/></svg>