<svg width="11" height="15" fill="none" xmlns="http://www.w3.org/2000/svg"><g clip-path="url(#clip0)"><path d="M9.78 9.222a.668.668 0 00-.53-.262H9v-1.8c0-1.15-.344-2.137-1.031-2.962-.688-.826-1.51-1.238-2.47-1.238-.958 0-1.78.412-2.468 1.237C2.344 5.023 2 6.01 2 7.16v1.8h-.25a.668.668 0 00-.531.262A.963.963 0 001 9.86v5.4c0 .25.073.463.219.638a.669.669 0 00.531.262h7.5a.669.669 0 00.531-.262.964.964 0 00.219-.638v-5.4a.962.962 0 00-.22-.638zM7.5 8.96h-4v-1.8c0-.663.195-1.228.586-1.697.39-.469.862-.703 1.414-.703.552 0 1.023.234 1.414.703.39.469.586 1.034.586 1.697v1.8z" fill="#AFB4CC"/></g><defs><clipPath id="clip0"><path fill="#fff" transform="translate(0 .96)" d="M0 0h11v13.2H0z"/></clipPath></defs></svg>