<svg width="13" height="14" fill="none" xmlns="http://www.w3.org/2000/svg"><g clip-path="url(#clip0)" fill="#23C967"><path d="M6.5 13.916c-3.584 0-6.5-2.927-6.5-6.525C0 3.794 2.916.867 6.5.867S13 3.794 13 7.39c0 3.598-2.916 6.525-6.5 6.525zm0-12.117C3.428 1.799.929 4.308.929 7.39c0 3.084 2.499 5.593 5.571 5.593 3.072 0 5.572-2.51 5.572-5.593S9.572 1.8 6.5 1.8z"/><path d="M8.822 10.187a.462.462 0 01-.329-.136L3.85 5.39a.467.467 0 010-.66.463.463 0 01.657 0L9.15 9.39a.467.467 0 01-.328.796z"/><path d="M4.179 10.187a.467.467 0 01-.328-.796l4.642-4.66a.463.463 0 01.657 0 .467.467 0 010 .66l-4.643 4.66a.462.462 0 01-.328.136z"/></g><defs><clipPath id="clip0"><path fill="#fff" transform="translate(0 .867)" d="M0 0h13v13.049H0z"/></clipPath></defs></svg>